<?xml version="1.0" encoding="utf-8"?>
<svg width="32" height="32" xmlns="http://www.w3.org/2000/svg">

 <g>
  <title>background</title>
  <rect fill="none" id="canvas_background" height="402" width="582" y="-1" x="-1"/>
 </g>
 <g>
  <title>Layer 1</title>
  <ellipse ry="15.778537" rx="15.778537" id="svg_2" cy="16" cx="16.020492" stroke-opacity="null" stroke-width="null" stroke="null" fill="#7477bf"/>
  <path stroke="null" fill="#ffffff" id="svg_1" d="m17.653124,23.258167c0,-0.202406 0,-0.337347 -0.067469,-0.539753c-0.067471,-0.134941 -0.067471,-0.337349 -0.134941,-0.472288c-0.067469,-0.134937 -0.134939,-0.26988 -0.202408,-0.472286c-0.134937,-0.134941 -0.202408,-0.269878 -0.269876,-0.404819c-0.067471,-0.134939 -0.202408,-0.20241 -0.337349,-0.404818c-0.134937,-0.134937 -0.269876,-0.269876 -0.337349,-0.337345c-0.067467,-0.067471 -0.202406,-0.20241 -0.404817,-0.337349c-0.202407,-0.134939 -0.337347,-0.269878 -0.404817,-0.269878s-0.202409,-0.134941 -0.404816,-0.26988c-0.20241,-0.134935 -0.33735,-0.269875 -0.404819,-0.269875c-0.134938,0 -0.337347,0 -0.674695,0c-0.472288,0 -0.944573,0 -1.349392,0.067469c-0.472286,0.067471 -0.944572,0.134939 -1.416862,0.337345c-0.472287,0.134941 -0.877105,0.337349 -1.281921,0.607229s-0.674696,0.539757 -0.877105,0.944571c-0.202409,0.404821 -0.337348,0.877108 -0.337348,1.416862c0,0.607227 0.134939,1.146984 0.472287,1.551802c0.337348,0.472288 0.742166,0.809633 1.214452,1.079512s1.012044,0.472288 1.551801,0.607227s1.079515,0.202408 1.619269,0.202408c0.539758,0 1.012043,-0.067469 1.484333,-0.134939c0.472285,-0.134939 0.877102,-0.269878 1.281921,-0.539757c0.404818,-0.202408 0.742165,-0.539755 0.944571,-0.944574c0.20241,-0.404816 0.337349,-0.877104 0.337349,-1.416862zm-1.551798,-11.199948c0,-0.539757 -0.067472,-1.079514 -0.202411,-1.68674c-0.134939,-0.607225 -0.337347,-1.146982 -0.607226,-1.686739c-0.269877,-0.539756 -0.607225,-1.012044 -1.079514,-1.349391c-0.472286,-0.337349 -1.012043,-0.539757 -1.551799,-0.539757c-0.809636,0 -1.416862,0.269878 -1.889149,0.877104c-0.472287,0.607227 -0.674696,1.281923 -0.674696,2.159028c0,0.404818 0.06747,0.809635 0.134939,1.281921c0.06747,0.472287 0.269877,0.877105 0.472287,1.349391c0.202409,0.472288 0.472287,0.877106 0.742165,1.214453c0.269878,0.337348 0.607226,0.674696 1.012044,0.877105c0.404818,0.20241 0.809635,0.337348 1.281922,0.337348c0.809634,0 1.416862,-0.269877 1.821679,-0.809635c0.337347,-0.472287 0.539758,-1.146982 0.539758,-2.024087zm-1.686742,-6.139732l5.667445,0l-1.75421,1.012044l-1.754211,0c0.607227,0.404817 1.079515,0.944573 1.416864,1.619269s0.539753,1.416861 0.539753,2.159026c0,0.607226 -0.067467,1.214453 -0.269876,1.68674c-0.202406,0.472287 -0.472284,0.877105 -0.742165,1.214452c-0.269878,0.269879 -0.539755,0.607226 -0.877104,0.809635c-0.269878,0.269879 -0.539755,0.539758 -0.742166,0.809634c-0.202409,0.269878 -0.269879,0.539757 -0.269879,0.877106c0,0.202408 0.067471,0.472286 0.202408,0.674694c0.13494,0.202412 0.337351,0.404819 0.539759,0.607227c0.202406,0.20241 0.472288,0.404819 0.742165,0.607225c0.269878,0.20241 0.539757,0.47229 0.809635,0.742165c0.269878,0.269878 0.539757,0.539759 0.742165,0.877106c0.20241,0.337349 0.404818,0.674694 0.539759,1.079515c0.134939,0.404814 0.202406,0.877104 0.202406,1.34939c0,1.416861 -0.607224,2.631313 -1.821676,3.643354c-1.281923,1.146986 -3.103601,1.686741 -5.465036,1.686741c-0.539756,0 -1.012044,-0.067467 -1.5518,-0.134935c-0.539757,-0.067471 -1.079514,-0.20241 -1.551801,-0.404819c-0.539757,-0.202408 -1.012044,-0.472286 -1.416862,-0.742165c-0.404817,-0.26988 -0.742165,-0.674696 -1.012044,-1.146982c-0.202407,-0.404819 -0.337347,-0.877106 -0.337347,-1.484333c0,-0.539757 0.13494,-1.079514 0.472287,-1.754208c0.269878,-0.539759 0.674696,-1.012043 1.214453,-1.416864c0.539757,-0.404816 1.214452,-0.742161 1.889147,-0.944571c0.674696,-0.20241 1.349393,-0.337351 2.024088,-0.472288c0.607226,-0.067469 1.281922,-0.134941 1.956618,-0.202408c-0.539757,-0.742167 -0.809635,-1.349392 -0.809635,-1.956619c0,-0.134939 0,-0.202408 0,-0.337349c0,-0.067469 0.06747,-0.202406 0.06747,-0.269876c0,-0.067471 0.06747,-0.134939 0.134939,-0.269878c0.06747,-0.134939 0.06747,-0.20241 0.06747,-0.269878c-0.337348,0.067469 -0.674696,0.067469 -0.877105,0.067469c-1.281921,0 -2.361435,-0.404818 -3.306009,-1.281921c-0.944573,-0.877105 -1.349391,-1.889149 -1.349391,-3.171069c0,-1.214454 0.404818,-2.293966 1.214453,-3.23854c0.809634,-0.877105 1.821678,-1.484331 3.036131,-1.75421c0.809634,-0.202409 1.619269,-0.269878 2.428904,-0.269878zm13.426446,3.30601l0,1.686739l-3.306007,0l0,3.306009l-1.686743,0l0,-3.306009l-3.306009,0l0,-1.686739l3.306009,0l0,-3.30601l1.686743,0l0,3.30601l3.306007,0z"/>
  <ellipse ry="0.102458" rx="0.020492" id="svg_3" cy="15.938525" cx="24.319592" fill-opacity="null" stroke-opacity="null" stroke-width="null" stroke="null" fill="null"/>
 </g>
</svg>
