<svg width="32" height="32" xmlns="http://www.w3.org/2000/svg">

 <g>
  <title>background</title>
  <rect fill="none" id="canvas_background" height="34" width="34" y="-1" x="-1"/>
 </g>
 <g>
  <title>Layer 1</title>
  <ellipse ry="15.797317" rx="15.797317" id="svg_2" cy="15.850968" cx="15.925484" stroke-opacity="null" stroke-width="null" stroke="null" fill="#7477bf"/>
  <path fill="#ffffff" stroke="null" id="svg_1" d="m21.158974,10.859105l-3.525261,0l0,-2.312057c0,-0.86829 0.575478,-1.070721 0.980803,-1.070721c0.404404,0 2.487743,0 2.487743,0l0,-3.817153l-3.426126,-0.013372c-3.803317,0 -4.668839,2.846956 -4.668839,4.668842l0,2.544461l-2.199543,0l0,3.933354l2.199543,0c0,5.047882 0,11.130056 0,11.130056l4.62642,0c0,0 0,-6.14212 0,-11.130056l3.12178,0l0.403481,-3.933354z"/>
 </g>
</svg>
