<?xml version="1.0" encoding="utf-8"?>
<!-- Generator: Adobe Illustrator 19.1.0, SVG Export Plug-In . SVG Version: 6.00 Build 0)  -->
<svg width="32" height="32" xmlns="http://www.w3.org/2000/svg">

 <g>
  <title>background</title>
  <rect fill="none" id="canvas_background" height="402" width="582" y="-1" x="-1"/>
 </g>
 <g>
  <ellipse stroke="null" ry="15.937494" rx="15.937494" id="svg_2" cy="15.875" cx="16.218751" stroke-opacity="null" stroke-width="null" fill="#7477bf"/>
  <ellipse transform="rotate(116.565 28.0937 19.5)" id="svg_3" cy="19.5" cx="28.093748" fill-opacity="null" stroke-opacity="null" stroke-width="null" stroke="null" fill="null"/>
  <path stroke="null" fill="#ffffff" id="svg_1" d="m26.314068,9.511604c-0.755726,0.314885 -1.51145,0.566793 -2.393127,0.62977c0.881678,-0.503817 1.51145,-1.322517 1.826334,-2.267173c-0.818701,0.503817 -1.70038,0.818701 -2.645037,1.007633c-0.692749,-0.818703 -1.826334,-1.322518 -2.959923,-1.322518c-2.267174,0 -4.156484,1.826334 -4.156484,4.156484c0,0.314886 0.062976,0.629771 0.125951,0.944656c-3.463737,-0.188931 -6.486634,-1.826335 -8.564878,-4.345416c-0.377863,0.62977 -0.566793,1.322516 -0.566793,2.078241c0,1.448473 0.755725,2.708014 1.826335,3.463738c-0.692748,0 -1.322518,-0.188932 -1.889312,-0.503817c0,0 0,0.062977 0,0.062977c0,2.015266 1.448471,3.652668 3.337784,4.030531c-0.377862,0.062977 -0.692747,0.125954 -1.07061,0.125954c-0.251908,0 -0.503817,0 -0.755724,-0.062977c0.503816,1.637403 2.078242,2.833967 3.8416,2.896944c-1.385496,1.133589 -3.21183,1.763359 -5.164119,1.763359c-0.314885,0 -0.692748,0 -1.007634,-0.062979c1.826335,1.196564 4.030531,1.889313 6.360683,1.889313c7.620225,0 11.77671,-6.297707 11.77671,-11.776709c0,-0.188931 0,-0.377862 0,-0.503817c0.818703,-0.62977 1.51145,-1.385495 2.078243,-2.204197z"/>
  <ellipse ry="0.03125" id="svg_7" cy="11.718752" cx="10.031254" fill-opacity="0" stroke-opacity="null" stroke-width="null" stroke="null" fill="null"/>
 </g>
</svg>
